:version 1.10
:name ASF
:units
  mass 1
  length 1
  angle deg
:documentation
  ASF file generated by Kaydara
:root
  axis xyz
  order  tx ty tz rx ry rz
  position 0 0 0
  orientation 0 0 0
:bonedata
  begin
    id 1
    name RightUpLegDummy
    direction -0.718183 -0.695806 0.00816078
    length 4.904
    axis 0 0 0 xyz
  end
  begin
    id 2
    name RightUpLeg
    direction 3.53373e-006 -0.995788 0.0916898
    length 17.4976
    axis -3.49089 -0.000906625 0.000286804 xyz
    dof rx ry rz
  end
  begin
    id 3
    name RightLeg
    direction 0.00371092 -0.995096 -0.0988419
    length 16.5821
    axis 3.68512 0.0193738 -0.131023 xyz
    dof rx ry rz
  end
  begin
    id 4
    name RightFoot
    direction 0.00079151 -0.46099 0.887405
    length 3.77069
    axis 4.81691e-005 -0.120479 -0.188788 xyz
    dof rx ry rz
  end
  begin
    id 5
    name RightToes
    direction 0 0 0
    length 0
    axis 0 0 0 xyz
    dof rx ry rz
  end
  begin
    id 6
    name SpineDummy
    direction 8.3039e-015 1 4.57515e-016
    length 4.6813
    axis 0 0 0 xyz
  end
  begin
    id 7
    name Spine
    direction -3.15643e-008 0.999988 0.00495137
    length 10.1015
    axis -0.001389 0.000121418 2.40972e-006 xyz
    dof rx ry rz
  end
  begin
    id 8
    name Spine1
    direction 0 0 0
    length 0
    axis -0.001389 0.000121451 1.30017e-006 xyz
    dof rx ry rz
  end
  begin
    id 9
    name HEadDummy
    direction -1.99912e-008 0.999999 0.00127422
    length 3.43865
    axis -0.001389 0.000121451 1.30017e-006 xyz
  end
  begin
    id 10
    name HEad
    direction 0 0 0
    length 0
    axis 0 0 0 xyz
    dof rx ry rz
  end
  begin
    id 11
    name LeftShoulder1Dummy
    direction 0.998891 -0.0402509 -0.0244456
    length 3.5433
    axis -0.001389 0.000121451 1.30017e-006 xyz
  end
  begin
    id 12
    name LeftShoulder1
    direction 0.99951 -0.000327763 0.0313091
    length 4.05031
    axis -0.001389 0.000121451 1.30017e-006 xyz
    dof rx ry rz
  end
  begin
    id 13
    name LeftArm
    direction 0.998561 -0.00100056 -0.0536182
    length 10.3537
    axis -23.1894 0.134784 0.967509 xyz
    dof rx ry rz
  end
  begin
    id 14
    name LeftForeArm
    direction 0.998903 0.00866432 0.046012
    length 8.70632
    axis -9.91835 -0.06569 -0.177794 xyz
    dof rx ry rz
  end
  begin
    id 15
    name LeftHand
    direction 0 0 0
    length 0
    axis 0 0 0 xyz
    dof rx ry rz
  end
  begin
    id 16
    name RightShoulderDummy
    direction -0.998891 -0.0402509 -0.0244414
    length 3.5433
    axis -0.001389 0.000121451 1.30017e-006 xyz
  end
  begin
    id 17
    name RightShoulder
    direction -0.99951 -0.000327807 0.0313133
    length 4.05031
    axis 0.215806 0.000203643 -0.0068026 xyz
    dof rx ry rz
  end
  begin
    id 18
    name RightArm
    direction -0.998573 -0.000999564 -0.053403
    length 10.3947
    axis -23.2009 -0.134239 -0.964101 xyz
    dof rx ry rz
  end
  begin
    id 19
    name RightForeArm
    direction -0.998898 0.00868028 0.0461306
    length 8.68355
    axis -9.92322 0.0658061 0.178868 xyz
    dof rx ry rz
  end
  begin
    id 20
    name RightHand
    direction 0 0 0
    length 0
    axis 0 0 0 xyz
    dof rx ry rz
  end
  begin
    id 21
    name LeftUpLegDummy
    direction 0.718183 -0.695806 0.00816078
    length 4.904
    axis 0 0 0 xyz
  end
  begin
    id 22
    name LeftUpLeg
    direction -6.81752e-006 -0.995793 0.0916337
    length 17.4976
    axis -3.48766 0.00143442 -0.000524262 xyz
    dof rx ry rz
  end
  begin
    id 23
    name LeftLeg
    direction -0.00601358 -0.995091 -0.0987824
    length 16.5821
    axis 3.68178 -0.00654042 -0.000285133 xyz
    dof rx ry rz
  end
  begin
    id 24
    name LeftFoot
    direction -0.00417578 -0.460984 0.887399
    length 3.77069
    axis 1.87233e-006 4.66016e-005 -8.6538e-006 xyz
    dof rx ry rz
  end
  begin
    id 25
    name LeftToes
    direction 0 0 0
    length 0
    axis 0 0 0 xyz
    dof rx ry rz
  end
:hierarchy
  begin
    root RightUpLegDummy SpineDummy LeftUpLegDummy
    RightUpLegDummy RightUpLeg
    RightUpLeg RightLeg
    RightLeg RightFoot
    RightFoot RightToes
    SpineDummy Spine
    Spine Spine1
    Spine1 HEadDummy LeftShoulder1Dummy RightShoulderDummy
    HEadDummy HEad
    LeftShoulder1Dummy LeftShoulder1
    LeftShoulder1 LeftArm
    LeftArm LeftForeArm
    LeftForeArm LeftHand
    RightShoulderDummy RightShoulder
    RightShoulder RightArm
    RightArm RightForeArm
    RightForeArm RightHand
    LeftUpLegDummy LeftUpLeg
    LeftUpLeg LeftLeg
    LeftLeg LeftFoot
    LeftFoot LeftToes
  end

:SAMPLES-PER-SECOND 30
:FULLY-SPECIFIED
:DEGREES
191
root  -19.0012 40.5545 0.741645 -162.438 -84.1889 157.533
RightUpLeg  -4.48014 -5.21676 -13.1245
RightLeg  44.0971 -6.40138 -6.89354
RightFoot  3.98731 -1.16248 8.82796
RightToes  0.000481921 0.542163 -0.142578
Spine  2.53948 -1.05281 -2.29434
Spine1  15.8679 -0.786977 -1.78634
HEad  45.0319 6.46606 -13.1977
LeftShoulder1  9.39324 -12.7892 -50.3255
LeftArm  -2.17005 3.27579 -17.4103
LeftForeArm  33.5421 -16.9598 -4.75105
LeftHand  -0.25398 0.0180481 5.50724
RightShoulder  4.80446 8.09911 35.4373
RightArm  -0.850214 -12.3395 36.6159
RightForeArm  4.3213 15.6448 6.40596
RightHand  -1.51322 5.25373 -16.7835
LeftUpLeg  -2.1556 5.65436 -1.87182
LeftLeg  8.17084 26.3019 -3.5505
LeftFoot  -3.48479 -0.30652 4.76791
LeftToes  1.06246e-005 4.65868e-005 -8.65513e-006
192
root  -19.3509 40.6046 0.98595 -168.313 -84.3167 163.286
RightUpLeg  -6.59883 -5.02109 -11.817
RightLeg  44.4442 -6.54991 -7.1333
RightFoot  2.58045 -1.07822 8.96025
RightToes  0.000481921 0.542163 -0.142578
Spine  2.79778 -1.50437 -2.77872
Spine1  16.0395 -1.63283 -0.763649
HEad  45.8 6.68597 -12.3236
LeftShoulder1  9.3819 -12.7991 -50.2351
LeftArm  -2.41119 1.23146 -17.5322
LeftForeArm  32.1573 -20.0694 -3.77397
LeftHand  -0.25398 0.0180481 5.50724
RightShoulder  4.73342 7.99578 35.1966
RightArm  -0.463641 -12.5074 37.2704
RightForeArm  3.7172 16.2236 6.25547
RightHand  -1.49159 5.1466 -16.6889
LeftUpLeg  -1.31919 5.63286 -1.70657
LeftLeg  7.87685 26.3073 -3.52294
LeftFoot  -3.921 -0.29625 4.93096
LeftToes  1.06246e-005 4.65868e-005 -8.65513e-006
193
root  -19.6884 40.6415 1.19239 -173.627 -84.5547 168.525
RightUpLeg  -8.389 -5.36121 -10.5222
RightLeg  43.0597 -6.75065 -7.00075
RightFoot  1.40343 -1.00179 9.03605
RightToes  0.000481921 0.542163 -0.142578
Spine  3.1041 -1.91338 -3.43825
Spine1  16.1617 -2.48492 0.35213
HEad  46.4203 6.24632 -11.2991
LeftShoulder1  9.35447 -12.8296 -49.997
LeftArm  -4.24303 -0.589108 -17.686
LeftForeArm  31.9089 -23.9013 -3.43672
LeftHand  -0.25398 0.0180481 5.50724
RightShoulder  4.7198 8.00953 35.0319
RightArm  0.607617 -13.0046 37.6527
RightForeArm  4.99529 16.8442 6.02437
RightHand  -1.32446 4.59378 -15.6622
LeftUpLeg  -0.600005 5.72882 -1.50285
LeftLeg  7.71274 25.9999 -3.50836
LeftFoot  -4.40974 -0.279147 5.04486
LeftToes  1.06246e-005 4.65868e-005 -8.65513e-006
194
root  -20.0098 40.6631 1.36616 -178.213 -84.7664 173.098
RightUpLeg  -9.94165 -6.10407 -9.33719
RightLeg  40.2844 -7.1022 -6.6811
RightFoot  0.415646 -0.916874 8.91597
RightToes  0.000481921 0.542163 -0.142578
Spine  3.4436 -2.22287 -4.1598
Spine1  16.2599 -3.21008 1.38701
HEad  46.7841 5.26931 -10.0591
LeftShoulder1  9.29237 -12.8352 -49.6499
LeftArm  -7.34041 -2.5535 -17.7462
LeftForeArm  33.2859 -28.0185 -4.24203
LeftHand  -0.25398 0.0180481 5.50724
RightShoulder  4.76363 8.09562 35.1042
RightArm  1.70179 -13.6771 37.7359
RightForeArm  6.74591 17.2562 5.83784
RightHand  -1.19991 4.20085 -14.7916
LeftUpLeg  0.00972096 5.88114 -1.30895
LeftLeg  7.63906 25.6532 -3.53422
LeftFoot  -5.01765 -0.246158 5.00009
LeftToes  1.06246e-005 4.65868e-005 -8.65513e-006
195
root  -20.3208 40.665 1.5167 178.345 -84.9318 176.629
RightUpLeg  -11.36 -7.29506 -8.32983
RightLeg  36.3912 -7.3474 -6.03492
RightFoot  -0.366476 -0.861657 8.92607
RightToes  0.000481921 0.542163 -0.142578
Spine  3.70918 -2.44912 -4.87688
Spine1  16.3898 -3.80265 2.30016
HEad  46.9498 4.05942 -8.77801
LeftShoulder1  9.24463 -12.8452 -49.3653
LeftArm  -9.42875 -4.75921 -17.6973
LeftForeArm  34.4789 -32.1827 -5.13819
LeftHand  -0.25398 0.0180481 5.50724
RightShoulder  4.80966 8.16178 35.2634
RightArm  2.31036 -14.3977 37.7446
RightForeArm  8.17886 17.3061 5.77514
RightHand  -1.13734 3.96802 -14.3722
LeftUpLeg  0.41588 5.96412 -1.23605
LeftLeg  7.7075 25.441 -3.47001
LeftFoot  -5.63926 -0.208579 4.86832
LeftToes  1.06246e-005 4.65868e-005 -8.65513e-006
196
root  -20.6324 40.6499 1.65034 176.151 -85.1226 178.945
RightUpLeg  -12.5955 -8.97513 -7.47619
RightLeg  31.6292 -7.11843 -4.94586
RightFoot  -0.580253 -0.851283 8.97848
RightToes  0.000481921 0.542163 -0.142578
Spine  3.91434 -2.64673 -5.58962
Spine1  16.5539 -4.33936 3.15298
HEad  47.0888 2.84374 -7.62009
LeftShoulder1  9.2286 -12.86 -49.2354
LeftArm  -10.9343 -7.13977 -17.4954
LeftForeArm  36.0331 -36.0213 -6.00673
LeftHand  -0.25398 0.0180481 5.50724
RightShoulder  4.82613 8.18374 35.3257
RightArm  2.1567 -15.1029 37.8606
RightForeArm  9.49833 16.9463 5.83424
RightHand  -1.06033 3.61814 -13.9176
LeftUpLeg  0.685571 5.93653 -1.31175
LeftLeg  7.94068 25.2998 -3.28086
LeftFoot  -6.26589 -0.172247 4.73611
LeftToes  1.06246e-005 4.65868e-005 -8.65513e-006
